<svg width="297" height="174" viewBox="0 0 297 174" fill="none" xmlns="http://www.w3.org/2000/svg">
<path d="M113.731 98.6416C113.731 98.6416 111.401 153.314 125.923 209.742H151.021C151.021 209.742 144.052 161.372 140.842 126.67H145.593L163.674 209.742H192.073C192.073 209.742 176.263 145.159 171.421 108.187L113.731 98.6416Z" fill="#9080CD"/>
<path d="M116.043 78.6045C113.203 89.0408 112.295 103.928 113.219 116.619C113.219 116.619 133.914 125.289 175.305 120.269L174.554 81.4283L116.037 78.6045H116.043Z" fill="url(#paint0_linear_135_12864)"/>
<mask id="mask0_135_12864" style="mask-type:luminance" maskUnits="userSpaceOnUse" x="112" y="78" width="64" height="44">
<path d="M116.039 78.6074C113.199 89.0437 112.292 103.931 113.215 116.622C113.215 116.622 133.91 125.292 175.301 120.272L174.55 81.4312L116.033 78.6074H116.039Z" fill="white"/>
</mask>
<g mask="url(#mask0_135_12864)">
<path d="M118.531 94.9531C118.531 94.9531 120.276 109.223 134.019 111.456" stroke="#D63544" stroke-width="1.05" stroke-miterlimit="10" stroke-linecap="round"/>
<path d="M126.277 97.8096C126.277 97.8096 128.575 106.383 136.102 109.083" stroke="#D63544" stroke-width="1.05" stroke-miterlimit="10" stroke-linecap="round"/>
</g>
<path d="M104.003 69.4447C108.593 49.2807 125.155 40.9434 135.994 37.5989C142.393 35.6233 149.157 35.6233 155.557 37.5989C166.395 40.9488 182.957 49.2807 187.547 69.4447C194.639 100.598 152.641 98.4666 132.859 80.5252C124.559 92.0406 96.9113 100.598 104.003 69.4447Z" fill="url(#paint1_radial_135_12864)"/>
<mask id="mask1_135_12864" style="mask-type:luminance" maskUnits="userSpaceOnUse" x="102" y="36" width="87" height="58">
<path d="M104.003 69.4437C108.593 49.2797 125.155 40.9425 135.994 37.5979C142.393 35.6223 149.157 35.6223 155.557 37.5979C166.395 40.9478 182.957 49.2797 187.547 69.4437C194.639 100.597 152.641 98.4657 132.859 80.5242C124.559 92.0396 96.9113 100.597 104.003 69.4437Z" fill="white"/>
</mask>
<g mask="url(#mask1_135_12864)">
<path d="M136.396 35.1514C136.396 35.1514 135.371 46.6131 145.571 46.6131C155.771 46.6131 155.594 35.4574 155.594 35.4574L136.396 35.1514Z" fill="url(#paint2_linear_135_12864)"/>
<path d="M164.587 56.0293C164.587 56.0293 160.576 61.6233 163.502 74.1425" stroke="#FB5B58" stroke-width="1.17" stroke-miterlimit="10" stroke-linecap="round"/>
<path d="M161.339 55.3418C161.339 55.3418 160.088 58.0153 162.026 59.293" stroke="#FB5B58" stroke-width="1.17" stroke-miterlimit="10" stroke-linecap="round"/>
<path d="M125.707 56.0293C125.707 56.0293 130.259 57.9351 127.334 70.4598" stroke="#FB5B58" stroke-width="1.17" stroke-miterlimit="10" stroke-linecap="round"/>
<path d="M128.957 55.3418C128.957 55.3418 130.208 58.0153 128.27 59.293" stroke="#FB5B58" stroke-width="1.17" stroke-miterlimit="10" stroke-linecap="round"/>
<path d="M135.074 63.873C135.074 63.873 148.597 67.2069 155.936 72.4572" stroke="#FB5B58" stroke-width="1.17" stroke-miterlimit="10" stroke-linecap="round"/>
</g>
<path d="M135.07 63.8724C135.07 63.8724 129.557 61.5049 126.647 62.6216C123.737 63.7328 119.582 67.7753 119.582 67.7753L127.329 71.1145C127.329 71.1145 129.369 65.2682 135.075 63.8724H135.07Z" fill="url(#paint3_radial_135_12864)"/>
<path d="M159.852 61.7186C159.852 61.7186 168.114 59.1847 168.866 59.5605C169.618 59.9363 171.803 62.9319 173.58 64.0378C175.357 65.1437 173.596 66.9851 171.561 66.0349C169.526 65.0846 169.274 64.6927 169.274 64.6927C168.673 64.3008 167.889 65.192 170.256 66.3248C172.624 67.4575 174.422 68.2628 174.192 69.1271C173.961 69.9914 173.569 70.2813 171.953 69.9163C171.953 69.9163 173.263 70.888 172.737 71.8489C172.211 72.8099 168.275 72.7669 168.275 72.7669C168.275 72.7669 169.306 75.0485 166.456 75.3223C163.605 75.5961 157.673 74.3721 155.933 72.4556C154.054 70.3887 153.899 63.6835 159.847 61.7186H159.852Z" fill="url(#paint4_radial_135_12864)"/>
<mask id="mask2_135_12864" style="mask-type:luminance" maskUnits="userSpaceOnUse" x="154" y="59" width="21" height="17">
<path d="M159.856 61.7157C159.856 61.7157 168.118 59.1818 168.87 59.5575C169.622 59.9333 171.806 62.9289 173.583 64.0349C175.36 65.1408 173.6 66.9821 171.565 66.0319C169.53 65.0817 169.278 64.6898 169.278 64.6898C168.677 64.2979 167.893 65.1891 170.26 66.3218C172.628 67.4546 174.426 68.2598 174.195 69.1242C173.965 69.9885 173.573 70.2784 171.957 69.9133C171.957 69.9133 173.267 70.885 172.741 71.846C172.214 72.8069 168.279 72.764 168.279 72.764C168.279 72.764 169.31 75.0456 166.459 75.3194C163.609 75.5932 157.677 74.3692 155.937 72.4526C154.058 70.3858 153.903 63.6805 159.851 61.7157H159.856Z" fill="white"/>
</mask>
<g mask="url(#mask2_135_12864)">
<path d="M168.227 68.4434C169.622 69.152 171.029 69.7479 172.484 70.011" stroke="#FB5B58" stroke-width="0.85" stroke-miterlimit="10" stroke-linecap="round"/>
<path d="M165.102 72.0879C166.605 72.5066 168.103 72.818 169.579 72.7912" stroke="#FB5B58" stroke-width="0.85" stroke-miterlimit="10" stroke-linecap="round"/>
</g>
<path d="M154.23 28.5454L153.393 36.6035C153.14 40.6191 149.822 43.7436 145.818 43.7436C141.625 43.7436 138.227 40.3292 138.227 36.115V28.5561C139.23 31.8202 149.678 36.4532 154.225 28.54L154.23 28.5454Z" fill="url(#paint5_radial_135_12864)"/>
<mask id="mask3_135_12864" style="mask-type:luminance" maskUnits="userSpaceOnUse" x="138" y="28" width="17" height="16">
<path d="M154.234 28.5474L153.396 36.6054C153.144 40.6211 149.826 43.7455 145.821 43.7455C141.629 43.7455 138.23 40.3312 138.23 36.1169V28.5581C139.234 31.8221 149.681 36.4551 154.229 28.542L154.234 28.5474Z" fill="white"/>
</mask>
<g mask="url(#mask3_135_12864)">
<path d="M153.442 29.7855C153.442 29.7855 150.097 38.9871 138.238 37.1887V28.5615C138.238 30.8807 147.316 36.6679 153.442 29.7855Z" fill="url(#paint6_linear_135_12864)"/>
</g>
<path d="M162.53 19.2656C162.256 21.5526 160.189 23.1793 157.913 22.9001C157.543 22.8571 157.188 22.7605 156.855 22.6263L156.974 14.8581C157.575 14.6326 158.235 14.5467 158.917 14.6273C161.188 14.9064 162.809 16.984 162.53 19.2656Z" fill="url(#paint7_radial_135_12864)"/>
<path d="M158.41 16.2871C158.41 16.2871 160.67 16.314 160.885 18.5687C161.089 20.7054 158.738 20.9792 158.738 20.9792" stroke="#FC5856" stroke-width="1.12" stroke-miterlimit="10" stroke-linecap="round"/>
<path d="M159.074 18.3477C159.074 18.3477 160.218 18.3477 160.556 19.8508" stroke="#FC5856" stroke-width="1.12" stroke-miterlimit="10" stroke-linecap="round"/>
<path d="M130.891 19.2656C131.164 21.5526 133.231 23.1793 135.508 22.9001C135.878 22.8571 136.232 22.7605 136.565 22.6263L136.447 14.8581C135.846 14.6326 135.185 14.5467 134.504 14.6273C132.233 14.9064 130.611 16.984 130.891 19.2656Z" fill="url(#paint8_radial_135_12864)"/>
<path d="M135.015 16.2871C135.015 16.2871 132.755 16.314 132.54 18.5687C132.336 20.7054 134.687 20.9792 134.687 20.9792" stroke="#FC5856" stroke-width="1.12" stroke-miterlimit="10" stroke-linecap="round"/>
<path d="M134.345 18.3486C134.345 18.3486 133.201 18.3486 132.863 19.8518" stroke="#FC5856" stroke-width="1.12" stroke-miterlimit="10" stroke-linecap="round"/>
<path d="M145.816 34.2919C137.988 34.2919 134.998 26.5129 135.685 13.693C136.249 3.15471 141.982 1.00195 146.932 1.00195C151.882 1.00195 157.911 3.14397 158.179 13.693C158.448 24.2421 153.643 34.2919 145.816 34.2919Z" fill="url(#paint9_radial_135_12864)"/>
<mask id="mask4_135_12864" style="mask-type:luminance" maskUnits="userSpaceOnUse" x="135" y="1" width="24" height="34">
<path d="M145.816 34.2899C137.988 34.2899 134.998 26.511 135.685 13.6911C136.249 3.15276 141.982 1 146.932 1C151.882 1 157.911 3.14202 158.179 13.6911C158.448 24.2401 153.643 34.2899 145.816 34.2899Z" fill="white"/>
</mask>
<g mask="url(#mask4_135_12864)">
<path d="M158.185 17.167C158.185 17.167 154.062 12.3569 154.062 4.99131C154.062 4.99131 142.745 8.49693 136.48 3.98741C136.48 3.98741 138.757 0.197266 148.012 0.197266C162.11 0.197266 158.191 17.167 158.191 17.167" fill="url(#paint10_linear_135_12864)"/>
</g>
<path d="M151.219 22.6524C151.711 22.6524 152.11 21.3473 152.11 19.7373C152.11 18.1274 151.711 16.8223 151.219 16.8223C150.727 16.8223 150.328 18.1274 150.328 19.7373C150.328 21.3473 150.727 22.6524 151.219 22.6524Z" fill="url(#paint11_linear_135_12864)"/>
<path d="M142.09 22.6524C142.583 22.6524 142.982 21.3473 142.982 19.7373C142.982 18.1274 142.583 16.8223 142.09 16.8223C141.598 16.8223 141.199 18.1274 141.199 19.7373C141.199 21.3473 141.598 22.6524 142.09 22.6524Z" fill="url(#paint12_linear_135_12864)"/>
<path d="M154.746 15.6091C154.746 15.6091 151.911 13.0591 147.289 13.655V10.042C147.289 10.042 153.742 10.96 154.746 15.6091Z" fill="url(#paint13_linear_135_12864)"/>
<path d="M137.254 15.6091C137.254 15.6091 139.09 13.0591 142.091 13.655V10.042C142.091 10.042 137.903 10.96 137.254 15.6091Z" fill="url(#paint14_linear_135_12864)"/>
<path d="M144.908 17.8857C144.908 17.8857 145.847 20.4197 145.6 23.3025C145.6 23.3025 142.98 23.4958 142.98 25.16C142.98 26.8243 146.046 26.3787 146.046 26.3787" stroke="#FB5B58" stroke-width="1.17" stroke-miterlimit="10" stroke-linecap="round"/>
<path d="M149.443 27.4678C149.443 27.4678 147.086 30.4151 142.094 29.7762" stroke="#FC5957" stroke-width="1.17" stroke-miterlimit="10" stroke-linecap="round"/>
<path d="M150.329 27.9993C150.329 27.9993 149.363 27.5913 148.805 26.6572" stroke="#FC5957" stroke-width="1.17" stroke-miterlimit="10" stroke-linecap="round"/>
<path d="M157.514 3.47696C157.514 3.47696 156.145 3.26759 154.422 4.74929" stroke="#431016" stroke-width="1.06" stroke-miterlimit="10" stroke-linecap="round"/>
<path d="M156.263 1.46973C156.263 1.46973 154.916 2.52732 154.422 4.75523" stroke="#431016" stroke-width="1.06" stroke-miterlimit="10" stroke-linecap="round"/>
<path d="M38.7812 61.3428H34.5938V105.37H38.7812V61.3428Z" fill="url(#paint15_linear_135_12864)"/>
<path d="M42.0429 170.746H37.8555V214.773H42.0429V170.746Z" fill="url(#paint16_linear_135_12864)"/>
<path d="M34.7163 161.958H45.2009V188.371C45.2009 189.718 44.1058 190.819 42.7529 190.819H37.159C35.8115 190.819 34.7109 189.724 34.7109 188.371V161.958H34.7163Z" fill="url(#paint17_linear_135_12864)"/>
<path d="M29.205 54.9648H44.1831C50.3139 54.9648 55.2905 59.9414 55.2905 66.0722C55.2905 72.203 50.3139 77.1796 44.1831 77.1796H29.205C23.0742 77.1796 18.0977 72.203 18.0977 66.0722C18.0977 59.9414 23.0742 54.9648 29.205 54.9648Z" fill="url(#paint18_linear_135_12864)"/>
<path d="M54.9254 82.2744H17.0293C9.83341 82.2744 4 88.1078 4 95.3037V143.835C4 151.031 9.83341 156.864 17.0293 156.864H54.9254C62.1212 156.864 67.9547 151.031 67.9547 143.835V95.3037C67.9547 88.1078 62.1212 82.2744 54.9254 82.2744Z" fill="url(#paint19_linear_135_12864)"/>
<path d="M82.0129 155.956H18.7454C14.6597 155.956 11.3477 159.268 11.3477 163.354V168.25C11.3477 172.336 14.6597 175.648 18.7454 175.648H82.0129C86.0986 175.648 89.4107 172.336 89.4107 168.25V163.354C89.4107 159.268 86.0986 155.956 82.0129 155.956Z" fill="url(#paint20_linear_135_12864)"/>
<path d="M95.9663 95.6279C95.9663 95.6279 105.216 102.129 112.968 111.755C112.968 111.755 127.495 118.788 138.324 120.887L133.562 129.847C133.562 129.847 109.425 130.732 100.465 126.099C96.428 124.011 86.8345 114.257 86.8345 114.257C86.8345 114.257 80.4568 103.128 95.9609 95.6279H95.9663Z" fill="url(#paint21_radial_135_12864)"/>
<path d="M132.172 127.936C133.455 130.443 136.032 131.93 137.696 132.144C139.355 132.365 140.665 134.635 141.583 134.244C142.501 133.852 142.463 131.189 139.924 129.831C137.385 128.478 136.606 127.936 136.606 127.936H132.177H132.172Z" fill="url(#paint22_radial_135_12864)"/>
<path d="M149.062 127.781C149.062 127.781 149.927 131.496 152.439 132.559C154.334 133.358 155.327 131.764 154.017 130.905C152.707 130.046 151.569 126.073 150.066 123.872C148.563 121.671 142.609 121.397 142.609 121.397L149.062 127.781Z" fill="url(#paint23_radial_135_12864)"/>
<path d="M129.951 120.89C129.951 120.89 130.343 126.097 132.007 127.793C133.376 129.184 139.958 128.019 141.262 128.567C142.567 129.114 144.419 134.091 145.578 134.032C148.284 133.887 145.82 128.556 145.82 128.556C145.82 128.556 148.719 133.978 149.884 133.994C152.402 134.032 150.995 130.902 150.308 128.98C149.621 127.058 146.716 122.328 141.026 120.89H129.945H129.951Z" fill="url(#paint24_radial_135_12864)"/>
<mask id="mask5_135_12864" style="mask-type:luminance" maskUnits="userSpaceOnUse" x="129" y="120" width="23" height="15">
<path d="M129.955 120.888C129.955 120.888 130.346 126.095 132.011 127.792C133.38 129.182 139.961 128.017 141.266 128.565C142.571 129.112 144.423 134.089 145.582 134.03C148.288 133.885 145.824 128.554 145.824 128.554C145.824 128.554 148.723 133.976 149.888 133.992C152.406 134.03 150.999 130.9 150.312 128.978C149.625 127.056 146.72 122.326 141.03 120.888H129.949H129.955Z" fill="white"/>
</mask>
<g mask="url(#mask5_135_12864)">
<path d="M147.299 133.022C146.891 130.327 145.361 127.594 145.055 127.101" stroke="#FC5957" stroke-width="0.9" stroke-miterlimit="10" stroke-linecap="round"/>
</g>
<path d="M150.312 128.975C150.312 128.975 149.775 127.408 148.293 125.588" stroke="#FC5957" stroke-width="0.9" stroke-miterlimit="10" stroke-linecap="round"/>
<path d="M108.657 138.494C126.899 138.494 135.44 138.349 140.363 156.038C145.576 174.753 159.094 212.799 159.094 212.799H138.956C138.956 212.799 123.275 195.448 110.799 169.465H85.5401C68.1677 169.465 63.6582 147.98 79.8656 142.397C86.7587 140.024 96.0784 138.494 108.657 138.494Z" fill="#FEE1D6"/>
<mask id="mask6_135_12864" style="mask-type:luminance" maskUnits="userSpaceOnUse" x="69" y="138" width="91" height="75">
<path d="M108.649 138.991C113.217 138.991 117.149 138.982 120.568 139.243C123.986 139.504 126.855 140.033 129.298 141.089C133.982 143.114 137.224 147.136 139.642 155.36L139.873 156.17C142.484 165.542 147.171 179.745 151.202 191.595C153.218 197.522 155.071 202.863 156.42 206.724C157.094 208.654 157.643 210.214 158.023 211.291C158.166 211.696 158.285 212.033 158.378 212.296H139.173C139.164 212.286 139.154 212.275 139.145 212.264C139.028 212.132 138.854 211.935 138.629 211.674C138.178 211.152 137.52 210.375 136.69 209.362C135.031 207.337 132.687 204.364 129.954 200.58C124.487 193.012 117.464 182.204 111.242 169.245L111.105 168.962H85.5322C77.0787 168.962 71.8154 163.753 70.5918 157.919C69.3896 152.187 72.07 145.78 79.6553 142.997L80.0205 142.867C86.8469 140.517 96.1089 138.991 108.649 138.991Z" fill="white" stroke="white"/>
</mask>
<g mask="url(#mask6_135_12864)">
<path d="M117.401 168.74C117.401 168.74 114.803 167.559 110.551 169.514L117.401 168.74Z" fill="#FEE1D6"/>
<path d="M117.401 168.74C117.401 168.74 114.803 167.559 110.551 169.514" stroke="#FDBFA7" stroke-width="1.05" stroke-miterlimit="10" stroke-linecap="round"/>
<path d="M116.051 164.064C116.051 164.064 112.787 165.396 110.559 169.513L116.051 164.064Z" fill="#FEE1D6"/>
<path d="M116.051 164.064C116.051 164.064 112.787 165.396 110.559 169.513" stroke="#FDBFA7" stroke-width="1.05" stroke-miterlimit="10" stroke-linecap="round"/>
</g>
<path d="M73.1992 78.9023C90.1207 81.957 100.815 99.4529 100.815 99.4529C100.815 99.4529 90.4964 101.649 87.4472 115.145L73.1992 78.9023Z" fill="#7B67C4"/>
<path d="M12.8281 110.698C12.8281 110.698 27.0492 77.8379 62.0946 77.8379C97.14 77.8379 92.405 103.322 90.5368 117.275C89.4953 125.08 98.9814 131.898 96.222 138.781C72.1659 137.557 51.7012 137.857 44.7598 161.382C37.1527 145.867 32.2405 130.358 31.3869 114.854L12.8281 110.698Z" fill="#7B67C4"/>
<mask id="mask7_135_12864" style="mask-type:luminance" maskUnits="userSpaceOnUse" x="12" y="77" width="85" height="85">
<path d="M12.8164 110.698C12.8164 110.698 27.0375 77.8379 62.0829 77.8379C97.1283 77.8379 92.3933 103.322 90.5251 117.275C89.4836 125.08 98.9697 131.898 96.2103 138.781C72.1541 137.557 51.6895 137.857 44.7481 161.382C37.141 145.867 32.2288 130.358 31.3752 114.854L12.8164 110.698Z" fill="white"/>
</mask>
<g mask="url(#mask7_135_12864)">
<path d="M47.4727 96.6611C47.4727 96.6611 51.9553 102.25 48.6859 114.758" stroke="#3E36A3" stroke-width="1.35" stroke-miterlimit="10" stroke-linecap="round"/>
<path d="M51.1075 95.9688C51.1075 95.9688 52.5033 98.6423 50.3398 99.9199" stroke="#3E36A3" stroke-width="1.35" stroke-miterlimit="10" stroke-linecap="round"/>
</g>
<path d="M82.1251 138.499C100.367 138.499 113.831 137.683 113.831 156.043C113.831 174.403 102.262 212.804 102.262 212.804H82.1251C82.1251 212.804 78.1739 184.447 84.2671 169.469H58.1065C40.7341 169.469 36.2246 147.985 52.432 142.401C59.3252 140.029 69.5521 138.499 82.1304 138.499H82.1251Z" fill="#FEE1D6"/>
<mask id="mask8_135_12864" style="mask-type:luminance" maskUnits="userSpaceOnUse" x="42" y="138" width="72" height="75">
<path d="M82.1251 138.497C100.367 138.497 113.831 137.681 113.831 156.041C113.831 174.401 102.262 212.802 102.262 212.802H82.1251C82.1251 212.802 78.1739 184.445 84.2671 169.467H58.1065C40.7341 169.467 36.2246 147.983 52.432 142.4C59.3252 140.027 69.5521 138.497 82.1304 138.497H82.1251Z" fill="white"/>
</mask>
<g mask="url(#mask8_135_12864)">
<path d="M90.8658 168.742C90.8658 168.742 88.2675 167.561 84.0156 169.515L90.8658 168.742Z" fill="#FEE1D6"/>
<path d="M90.8658 168.742C90.8658 168.742 88.2675 167.561 84.0156 169.515" stroke="#FDBFA7" stroke-width="1.05" stroke-miterlimit="10" stroke-linecap="round"/>
<path d="M89.5154 164.066C89.5154 164.066 86.2514 165.398 84.0234 169.515L89.5154 164.066Z" fill="#FEE1D6"/>
<path d="M89.5154 164.066C89.5154 164.066 86.2514 165.398 84.0234 169.515" stroke="#FDBFA7" stroke-width="1.05" stroke-miterlimit="10" stroke-linecap="round"/>
</g>
<path d="M52.0898 67.4131L54.307 82.9333C54.8278 86.5732 57.9469 89.2789 61.6243 89.2789C66.1928 89.2789 69.6662 85.1774 68.92 80.6732L67.6799 73.2218C67.6799 73.8606 55.9229 79.825 52.0898 67.4185V67.4131Z" fill="url(#paint25_radial_135_12864)"/>
<mask id="mask9_135_12864" style="mask-type:luminance" maskUnits="userSpaceOnUse" x="52" y="67" width="18" height="23">
<path d="M52.0859 67.4121L54.3031 82.9324C54.8239 86.5722 57.9429 89.2779 61.6204 89.2779C66.1889 89.2779 69.6623 85.1764 68.9161 80.6722L67.676 73.2208C67.676 73.8597 55.919 79.824 52.0859 67.4175V67.4121Z" fill="white"/>
</mask>
<g mask="url(#mask9_135_12864)">
<path d="M53.2695 70.6562C53.2695 70.6562 55.1646 79.2565 68.9133 78.3385L68.0758 72.7392C68.0758 72.7392 58.4072 78.7626 53.2695 70.6562Z" fill="url(#paint26_linear_135_12864)"/>
</g>
<path d="M60.501 43.0137C53.5381 43.0137 50.8753 50.5725 51.4873 63.0273C51.9919 73.265 57.092 75.3534 61.4941 75.3534C65.8963 75.3534 71.2594 73.2704 71.501 63.0273C71.7426 52.7789 67.4693 43.0137 60.501 43.0137Z" fill="url(#paint27_radial_135_12864)"/>
<path d="M51.4104 61.3428C51.4104 61.3428 49.3757 61.6756 48.9999 63.6029C48.6241 65.5302 51.7701 65.7825 51.7701 65.7825L51.4157 61.3428H51.4104Z" fill="url(#paint28_radial_135_12864)"/>
<path d="M58.2047 61.3364C58.6435 61.3364 58.9992 60.1827 58.9992 58.7595C58.9992 57.3363 58.6435 56.1826 58.2047 56.1826C57.7659 56.1826 57.4102 57.3363 57.4102 58.7595C57.4102 60.1827 57.7659 61.3364 58.2047 61.3364Z" fill="url(#paint29_linear_135_12864)"/>
<path d="M66.1383 61.3364C66.5771 61.3364 66.9328 60.1827 66.9328 58.7595C66.9328 57.3363 66.5771 56.1826 66.1383 56.1826C65.6995 56.1826 65.3438 57.3363 65.3438 58.7595C65.3438 60.1827 65.6995 61.3364 66.1383 61.3364Z" fill="url(#paint30_linear_135_12864)"/>
<path d="M54.2812 55.1045C54.2812 55.1045 56.8044 52.8444 60.9167 53.3759V50.1816C60.9167 50.1816 55.1724 50.9976 54.2812 55.1099V55.1045Z" fill="url(#paint31_linear_135_12864)"/>
<path d="M69.8353 55.1045C69.8353 55.1045 68.1979 52.8444 65.5352 53.3759V50.1816C65.5352 50.1816 69.2609 50.9976 69.8353 55.1099V55.1045Z" fill="url(#paint32_linear_135_12864)"/>
<path d="M62.6592 57.1221C62.6592 57.1221 61.8217 59.3661 62.0418 61.9161C62.0418 61.9161 64.3717 62.0825 64.3717 63.5589C64.3717 65.0352 61.6445 64.6379 61.6445 64.6379" stroke="#FB5B58" stroke-width="1.04" stroke-miterlimit="10" stroke-linecap="round"/>
<path d="M58.9922 65.6055C58.9922 65.6055 61.0859 68.2145 65.531 67.6509" stroke="#FC5957" stroke-width="1.04" stroke-miterlimit="10" stroke-linecap="round"/>
<path d="M58.207 66.0722C58.207 66.0722 59.066 65.7071 59.5653 64.8857" stroke="#FC5957" stroke-width="1.04" stroke-miterlimit="10" stroke-linecap="round"/>
<path d="M46.4492 57.1225C46.4492 59.4524 48.3389 61.3421 50.6688 61.3421C51.05 61.3421 51.4204 61.2938 51.7694 61.1971L52.6015 53.3753C52.0217 53.0746 51.3667 52.9082 50.6688 52.9082C48.3389 52.9082 46.4492 54.7979 46.4492 57.1278V57.1225Z" fill="url(#paint33_radial_135_12864)"/>
<path d="M50.9739 54.6331C50.9739 54.6331 48.6869 54.3861 48.1984 56.6248C47.7313 58.7453 50.0719 59.309 50.0719 59.309" stroke="#FC5856" stroke-width="1.13" stroke-miterlimit="10" stroke-linecap="round"/>
<path d="M50.0514 56.6237C50.0514 56.6237 48.8918 56.4841 48.3711 57.9497" stroke="#FC5856" stroke-width="1.13" stroke-miterlimit="10" stroke-linecap="round"/>
<path d="M52.3841 55.4518C52.3841 55.4518 47.6599 52.8589 48.3792 46.8462C49.0986 40.8281 52.6042 43.0185 52.6042 43.0185C52.6042 43.0185 58.3109 32.8291 70.4222 41.4348C70.4222 41.4348 73.9278 38.5412 76.2094 41.8911C78.491 45.241 65.8644 49.772 54.9717 47.1844C55.3744 50.2337 54.1128 52.8964 52.3787 55.4518H52.3841Z" fill="url(#paint34_linear_135_12864)"/>
<path d="M21.8039 103.36C39.6701 101.492 61.0421 117.131 65.9381 120.701C67.4252 121.785 68.6707 122.961 69.6853 124.077C71.9776 126.595 72.6702 130.187 71.5267 133.397L70.7268 135.646C70.3725 136.634 69.6531 137.45 68.719 137.917L66.8507 138.857C64.6497 139.963 62.2124 140.532 59.7536 140.462C59.5926 140.462 59.4637 140.451 59.3886 140.44C58.7873 140.349 59.0664 138.604 60.2207 138.47C60.2207 138.47 57.3969 138.374 57.2143 137.692C57.0318 137.005 57.5794 135.673 60.4086 135.437C60.4086 135.437 60.4354 132.447 60.2046 130.235C60.1079 129.301 59.3456 128.587 58.4061 128.555C52.2055 128.335 28.7292 127.239 18.47 123.052C6.59497 118.21 13.2304 104.262 21.7985 103.366L21.8039 103.36Z" fill="url(#paint35_linear_135_12864)"/>
<mask id="mask10_135_12864" style="mask-type:luminance" maskUnits="userSpaceOnUse" x="12" y="103" width="61" height="38">
<path d="M21.7882 103.357C39.6545 101.489 61.0264 117.128 65.9225 120.698C67.4095 121.782 68.655 122.958 69.6697 124.074C71.962 126.592 72.6545 130.184 71.5111 133.394L70.7112 135.643C70.3568 136.631 69.6375 137.447 68.7033 137.914L66.8351 138.854C64.634 139.96 62.1968 140.529 59.738 140.459C59.5769 140.459 59.4481 140.448 59.3729 140.438C58.7717 140.346 59.0508 138.602 60.205 138.467C60.205 138.467 57.3812 138.371 57.1987 137.689C57.0162 137.002 57.5638 135.67 60.3929 135.434C60.3929 135.434 60.4198 132.444 60.1889 130.232C60.0923 129.298 59.33 128.584 58.3905 128.552C52.1899 128.332 28.7136 127.236 18.4544 123.049C6.57934 118.207 13.2148 104.259 21.7829 103.363L21.7882 103.357Z" fill="white"/>
</mask>
<g mask="url(#mask10_135_12864)">
<path d="M63.8905 132.078L62.9993 137.243C62.9295 137.634 62.6181 137.941 62.2262 138.005L59.5742 138.418" stroke="#FB5B58" stroke-width="1.05" stroke-miterlimit="10" stroke-linecap="round"/>
<path d="M68.0523 132.158L66.082 139.202" stroke="#FB5B58" stroke-width="1.05" stroke-miterlimit="10" stroke-linecap="round"/>
<path d="M70.7517 132.438L69.168 137.64" stroke="#FB5B58" stroke-width="1.05" stroke-miterlimit="10" stroke-linecap="round"/>
</g>
<path d="M178.255 124.189H135.656L148.841 93.1216C149.34 91.9405 150.5 91.1729 151.783 91.1729H190.957C192.331 91.1729 193.255 92.574 192.718 93.8356L180.456 122.729C180.08 123.615 179.216 124.184 178.255 124.184V124.189Z" fill="url(#paint36_linear_135_12864)"/>
<mask id="mask11_135_12864" style="mask-type:luminance" maskUnits="userSpaceOnUse" x="135" y="91" width="58" height="34">
<path d="M178.259 124.188H135.66L148.845 93.1206C149.344 91.9396 150.504 91.1719 151.787 91.1719H190.961C192.335 91.1719 193.259 92.573 192.722 93.8346L180.46 122.728C180.084 123.614 179.22 124.183 178.259 124.183V124.188Z" fill="white"/>
</mask>
<g mask="url(#mask11_135_12864)">
<path d="M172.896 105.603L170.335 102.307C170.254 102.205 170.072 102.205 169.906 102.307L164.548 105.603C164.22 105.802 164.199 106.194 164.51 106.194H164.924C165.106 106.194 165.197 106.344 165.117 106.527L163.522 110.285C163.442 110.467 163.528 110.617 163.716 110.617H169.471C169.653 110.617 169.868 110.467 169.948 110.285L171.543 106.527C171.623 106.344 171.833 106.194 172.021 106.194H172.434C172.745 106.194 173.057 105.802 172.901 105.603H172.896Z" fill="url(#paint37_linear_135_12864)"/>
</g>
<path d="M122.545 128.193H178.318C179.424 128.193 180.321 127.297 180.321 126.191C180.321 125.085 179.424 124.188 178.318 124.188H122.545C121.439 124.188 120.543 125.085 120.543 126.191C120.543 127.297 121.439 128.193 122.545 128.193Z" fill="url(#paint38_linear_135_12864)"/>
<path d="M220.025 230.296H223.467L205.633 134.034H202.191L220.025 230.296Z" fill="url(#paint39_linear_135_12864)"/>
<path d="M98.2264 230.296H94.7852L112.614 134.034H116.055L98.2264 230.296Z" fill="url(#paint40_linear_135_12864)"/>
<path d="M242.612 128.194H75.6367V134.137H242.612V128.194Z" fill="url(#paint41_linear_135_12864)"/>
<path d="M59.4505 134.034H16.9698C14.2533 134.034 12.0469 131.828 12.0469 129.111C12.0469 126.395 14.2533 124.188 16.9698 124.188H59.4505C62.167 124.188 64.3734 126.395 64.3734 129.111C64.3734 131.828 62.167 134.034 59.4505 134.034Z" fill="#F2EAE0"/>
<path d="M48.6531 129.922V150.95C48.6531 154.214 46.0064 156.861 42.7424 156.861H28.1992" stroke="#F2EAE0" stroke-width="7.34" stroke-miterlimit="10" stroke-linecap="round"/>
<path d="M261.907 52.7532C259.297 51.1158 252.732 49.1617 256.248 43.3584C259.765 37.555 260.994 28.842 249.677 27.1617C246.639 26.7107 246.059 17.4769 234.753 17.9386C228.966 18.1748 223.737 29.1426 220.956 30.372C215.426 32.82 217.037 42.5584 222.18 46.719C227.205 50.783 218.073 59.555 219.582 65.514H226.222C225.991 64.1236 225.927 61.7132 227.473 59.3779L228.95 65.514H264.677C265.23 61.6219 266.808 55.8401 261.89 52.7585L261.907 52.7532Z" fill="url(#paint42_linear_135_12864)"/>
<path d="M257.186 40.9424C253.67 47.7389 254.695 48.7535 260.541 50.7506C267.671 53.1879 267.724 57.8423 267.724 57.8423" stroke="url(#paint43_linear_135_12864)" stroke-width="1.05" stroke-miterlimit="10" stroke-linecap="round"/>
<path d="M256.124 108.847C256.124 108.847 242.972 154.098 244.545 159.391C246.118 164.684 262.69 212.802 262.69 212.802C262.69 212.802 274.195 216.227 284.32 202.419L269.272 159.617C269.272 159.617 281.523 125.79 281.539 118.655C281.56 111.52 272.584 105.357 272.584 105.357L256.119 108.842L256.124 108.847Z" fill="#5A41B5"/>
<path d="M281.553 88.1318C281.553 88.1318 302.394 97.022 303.006 109.724C303.344 116.714 304.052 214.602 304.052 214.602C295.871 216.438 287.904 216.465 280.179 214.447L271.305 108.5C278.59 104.001 281.553 95.6316 281.553 88.1318Z" fill="#5A41B5"/>
<path d="M216.076 86.4285C216.076 86.4285 234.962 64.2083 240.465 62.2489C245.967 60.2894 253.403 71.8208 247.535 79.6749C241.673 87.529 230.705 103.978 218.996 104.273L216.07 86.4338L216.076 86.4285Z" fill="black"/>
<path d="M216.076 86.4285C216.076 86.4285 234.962 64.2083 240.465 62.2489C245.967 60.2894 253.403 71.8208 247.535 79.6749C241.673 87.529 230.705 103.978 218.996 104.273L216.07 86.4338L216.076 86.4285Z" fill="url(#paint44_linear_135_12864)"/>
<path d="M215.396 85.5969L216.373 84.8668C218.456 83.3099 221.382 83.573 223.143 85.4895C223.427 85.8009 223.706 86.1391 223.969 86.5042C226.863 90.5305 228.801 97.1445 222.659 103.238C220.979 104.907 218.322 105.17 216.357 103.85C215.67 103.388 214.95 102.792 214.258 102.014C214.258 102.014 219.873 93.8858 215.396 85.5969Z" fill="#FEF5F5"/>
<path d="M203.969 71.6655C203.969 71.6655 219.306 82.9447 222.178 91.9154C223.118 94.852 221.271 106.512 209.289 100.575C201.37 96.6504 197.253 78.3654 194.504 71.9823L203.969 71.6602V71.6655Z" fill="url(#paint45_radial_135_12864)"/>
<path d="M202.441 68.2467C201.335 66.0885 199.118 64.8055 197.684 64.6176C196.256 64.4297 195.124 62.4702 194.334 62.8138C193.545 63.152 193.578 65.4443 195.762 66.6146C197.947 67.7796 198.624 68.2467 198.624 68.2467H202.441Z" fill="url(#paint46_linear_135_12864)"/>
<path d="M187.907 68.3814C187.907 68.3814 184.31 64.6289 182.007 64.1457C179.704 63.6625 179.779 64.9832 180.906 65.7294C182.033 66.4702 185.748 69.8524 187.042 71.7475C188.336 73.6425 193.463 73.8787 193.463 73.8787L187.901 68.3814H187.907Z" fill="url(#paint47_radial_135_12864)"/>
<path d="M204.368 74.3126C204.368 74.3126 204.036 69.8245 202.597 68.3697C201.416 67.1725 195.747 68.1764 194.625 67.704C193.503 67.2316 191.908 63.0173 190.904 62.9958C189.9 62.9797 189.428 63.8655 189.428 63.8655C189.428 63.8655 188.424 62.4482 187.42 62.4482C186.416 62.4482 186.239 65.6962 186.83 67.3497C187.35 68.8099 189.364 72.1544 193.202 73.7757C194.077 74.1408 195.017 74.3179 195.967 74.3179H204.368V74.3126Z" fill="url(#paint48_radial_135_12864)"/>
<mask id="mask12_135_12864" style="mask-type:luminance" maskUnits="userSpaceOnUse" x="186" y="62" width="19" height="13">
<path d="M204.361 74.3136C204.361 74.3136 204.028 69.8255 202.589 68.3706C201.408 67.1735 195.739 68.1774 194.617 67.705C193.495 67.2325 191.9 63.0183 190.896 62.9968C189.893 62.9807 189.42 63.8665 189.42 63.8665C189.42 63.8665 188.416 62.4492 187.412 62.4492C186.408 62.4492 186.231 65.6971 186.822 67.3506C187.343 68.8109 189.356 72.1554 193.194 73.7767C194.069 74.1418 195.009 74.3189 195.959 74.3189H204.361V74.3136Z" fill="white"/>
</mask>
<g mask="url(#mask12_135_12864)">
<path d="M189.422 63.8613C189.771 66.1805 191.091 68.5373 191.355 68.9614" stroke="#FC5957" stroke-width="0.78" stroke-miterlimit="10" stroke-linecap="round"/>
</g>
<path d="M186.828 67.3457C186.828 67.3457 187.939 70.6044 191.509 72.886" stroke="#FC5957" stroke-width="0.78" stroke-miterlimit="10" stroke-linecap="round"/>
<path d="M265.211 58.1699C257.308 56.248 250.759 56.8707 250.759 56.8707L240.457 62.2445C240.457 62.2445 233.494 82.2636 233.333 91.1699C233.172 100.076 258.355 105.498 256.122 108.843C253.889 112.187 261.539 114.748 269.189 111.076C276.839 107.41 282.256 93.8595 281.461 89.3983C280.667 84.9371 282.256 62.3036 265.205 58.1645L265.211 58.1699Z" fill="black"/>
<path d="M265.211 58.1699C257.308 56.248 250.759 56.8707 250.759 56.8707L240.457 62.2445C240.457 62.2445 233.494 82.2636 233.333 91.1699C233.172 100.076 258.355 105.498 256.122 108.843C253.889 112.187 261.539 114.748 269.189 111.076C276.839 107.41 282.256 93.8595 281.461 89.3983C280.667 84.9371 282.256 62.3036 265.205 58.1645L265.211 58.1699Z" fill="url(#paint49_linear_135_12864)"/>
<mask id="mask13_135_12864" style="mask-type:luminance" maskUnits="userSpaceOnUse" x="233" y="56" width="49" height="57">
<path d="M265.211 58.1689C257.308 56.247 250.759 56.8697 250.759 56.8697L240.457 62.2436C240.457 62.2436 233.494 82.2626 233.333 91.1689C233.172 100.075 258.355 105.497 256.122 108.842C253.889 112.186 261.539 114.747 269.189 111.075C276.839 107.409 282.256 93.8585 281.461 89.3973C280.667 84.9361 282.256 62.3026 265.205 58.1635L265.211 58.1689Z" fill="white"/>
</mask>
<g mask="url(#mask13_135_12864)">
<path d="M254.764 55.3506C254.764 55.3506 249.218 67.0378 239.04 68.3745C228.861 69.7113 240.613 56.172 240.613 56.172L254.769 55.3506H254.764Z" fill="#FEF5F5"/>
</g>
<path d="M250.763 38.6722C250.763 41.0934 248.799 43.0529 246.383 43.0529C245.986 43.0529 245.604 42.9992 245.239 42.9025L244.375 34.7747C244.976 34.4633 245.658 34.2861 246.383 34.2861C248.804 34.2861 250.763 36.251 250.763 38.6668V38.6722Z" fill="url(#paint50_radial_135_12864)"/>
<path d="M246.059 36.0827C246.059 36.0827 248.431 35.825 248.947 38.1496C249.43 40.356 247.003 40.9412 247.003 40.9412" stroke="#FC5856" stroke-width="1.18" stroke-miterlimit="10" stroke-linecap="round"/>
<path d="M247.016 38.156C247.016 38.156 248.218 38.0111 248.76 39.5357" stroke="#FC5856" stroke-width="1.18" stroke-miterlimit="10" stroke-linecap="round"/>
<path d="M222.826 51.9339C225.397 51.9339 227.481 49.8501 227.481 47.2795C227.481 44.7089 225.397 42.625 222.826 42.625C220.256 42.625 218.172 44.7089 218.172 47.2795C218.172 49.8501 220.256 51.9339 222.826 51.9339Z" stroke="url(#paint51_linear_135_12864)" stroke-width="2.16" stroke-miterlimit="10" stroke-linecap="round"/>
<path d="M246.33 51.9339C248.901 51.9339 250.985 49.8501 250.985 47.2795C250.985 44.7089 248.901 42.625 246.33 42.625C243.76 42.625 241.676 44.7089 241.676 47.2795C241.676 49.8501 243.76 51.9339 246.33 51.9339Z" stroke="url(#paint52_linear_135_12864)" stroke-width="2.16" stroke-miterlimit="10" stroke-linecap="round"/>
<path d="M236.189 20.8115C243.426 20.8115 246.191 28.6656 245.557 41.609C245.037 52.2439 239.732 54.4182 235.159 54.4182C230.585 54.4182 225.012 52.2547 224.76 41.609C224.513 30.9633 228.953 20.8115 236.189 20.8115Z" fill="url(#paint53_radial_135_12864)"/>
<mask id="mask14_135_12864" style="mask-type:luminance" maskUnits="userSpaceOnUse" x="224" y="20" width="22" height="35">
<path d="M236.189 20.8115C243.426 20.8115 246.191 28.6656 245.557 41.609C245.037 52.2439 239.732 54.4182 235.159 54.4182C230.585 54.4182 225.012 52.2547 224.76 41.609C224.513 30.9633 228.953 20.8115 236.189 20.8115Z" fill="white"/>
</mask>
<g mask="url(#mask14_135_12864)">
<path d="M236.475 20.6299C236.475 20.6299 237.06 37.6157 225.309 34.4913C225.309 34.4913 225.958 21.0594 236.475 20.6299Z" fill="url(#paint54_linear_135_12864)"/>
<path d="M234.633 20.629C234.477 21.4987 232.641 38.5006 245.799 34.4904C246.427 33.9159 246.449 19.8613 234.633 20.629Z" fill="url(#paint55_linear_135_12864)"/>
</g>
<path d="M238.325 40.6798C238.325 42.1615 238.325 43.3587 237.499 43.3587C236.672 43.3587 236.672 42.1562 236.672 40.6798C236.672 39.2035 236.672 38.001 237.499 38.001C238.325 38.001 238.325 39.1981 238.325 40.6798Z" fill="url(#paint56_linear_135_12864)"/>
<path d="M236.926 38.3776C238.338 37.6206 238.891 39.0594 241.156 38.8178" stroke="#4F0F18" stroke-width="1.08" stroke-miterlimit="10" stroke-linecap="round"/>
<path d="M231.348 38.3776C229.936 37.6206 229.383 39.0594 227.117 38.8178" stroke="#4F0F18" stroke-width="1.08" stroke-miterlimit="10" stroke-linecap="round"/>
<path d="M231.599 40.6798C231.599 42.1615 231.599 43.3587 230.772 43.3587C229.945 43.3587 229.945 42.1562 229.945 40.6798C229.945 39.2035 229.945 38.001 230.772 38.001C231.599 38.001 231.599 39.1981 231.599 40.6798Z" fill="url(#paint57_linear_135_12864)"/>
<path d="M244.049 36.686C244.049 36.686 241.43 34.34 237.156 34.8875V31.5645C237.156 31.5645 243.121 32.4127 244.049 36.686Z" fill="url(#paint58_linear_135_12864)"/>
<path d="M226.512 36.686C226.512 36.686 228.734 34.34 232.353 34.8875V31.5645C232.353 31.5645 227.296 32.4127 226.512 36.686Z" fill="url(#paint59_linear_135_12864)"/>
<path d="M233.692 37.6152C233.692 37.6152 234.562 39.9452 234.331 42.5972C234.331 42.5972 231.91 42.7743 231.91 44.3044C231.91 45.8344 234.745 45.4264 234.745 45.4264" stroke="#FB5B58" stroke-width="1.08" stroke-miterlimit="10" stroke-linecap="round"/>
<path d="M232.63 47.735C232.63 47.735 235.83 46.4304 239.899 45.958C239.899 45.958 239.803 50.0649 236.737 50.6715C233.436 51.3265 232.625 47.7296 232.625 47.7296L232.63 47.735Z" fill="url(#paint60_linear_135_12864)"/>
<mask id="mask15_135_12864" style="mask-type:luminance" maskUnits="userSpaceOnUse" x="232" y="45" width="8" height="6">
<path d="M232.615 47.735C232.615 47.735 235.814 46.4304 239.884 45.958C239.884 45.958 239.787 50.0649 236.722 50.6715C233.42 51.3265 232.609 47.7296 232.609 47.7296L232.615 47.735Z" fill="white"/>
</mask>
<g mask="url(#mask15_135_12864)">
<path d="M233.238 50.4023C233.238 49.1353 235.08 47.7449 236.883 48.8347C238.945 47.4013 240.926 49.13 240.926 50.4023C240.926 51.6746 239.203 52.7 237.082 52.7C234.962 52.7 233.238 51.6693 233.238 50.4023Z" fill="#FB5B58"/>
</g>
<path d="M245.551 41.6074C245.551 41.6074 248.515 52.7524 250.759 56.8754L240.881 63.9027L238.336 54.0032C238.336 54.0032 245.111 50.8734 245.551 41.6074Z" fill="url(#paint61_radial_135_12864)"/>
<mask id="mask16_135_12864" style="mask-type:luminance" maskUnits="userSpaceOnUse" x="238" y="41" width="13" height="23">
<path d="M245.555 41.6074C245.555 41.6074 248.518 52.7524 250.762 56.8754L240.884 63.9027L238.34 54.0032C238.34 54.0032 245.115 50.8734 245.555 41.6074Z" fill="white"/>
</mask>
<g mask="url(#mask16_135_12864)">
<path d="M244.1 41.6074C244.1 41.6074 248.9 48.9944 238.603 58.1423L235.199 53.6167C235.199 53.6167 246.274 50.9539 244.1 41.6074Z" fill="url(#paint62_linear_135_12864)"/>
</g>
<path d="M250.754 84.8286C250.754 84.8286 234.96 117.517 231.589 119.992C229.232 121.721 222.189 125.038 218.152 126.88C217.48 127.186 217.701 128.195 218.441 128.195H240.463C243.915 128.195 269.27 92.382 269.27 92.382C269.27 92.382 265.222 81.9672 250.754 84.8286Z" fill="url(#paint63_radial_135_12864)"/>
<path d="M245.316 97.1395C247.013 81.1307 260.466 56.6611 271.01 60.6768C281.554 64.6924 272.798 95.6309 261.046 103.737C253.079 98.9379 245.316 97.1341 245.316 97.1341V97.1395Z" fill="url(#paint64_linear_135_12864)"/>
<path d="M279.18 107.179C279.18 107.179 283.55 117.926 297.078 112.778" stroke="#6159C9" stroke-width="1.05" stroke-miterlimit="10" stroke-linecap="round"/>
<path d="M244.357 95.9853L245.409 91.4651C245.543 90.8906 246.085 90.5095 246.671 90.5685C249.886 90.9121 259.829 92.469 265.111 99.0024C265.455 99.4265 265.45 100.028 265.111 100.457L262.159 104.21C261.794 104.672 261.149 104.79 260.645 104.489C256.124 101.81 250.021 99.0131 245.114 97.3543C244.545 97.161 244.212 96.5705 244.346 95.9853H244.357Z" fill="#FEF5F5"/>
<defs>
<linearGradient id="paint0_linear_135_12864" x1="144.093" y1="127.946" x2="144.093" y2="49.8509" gradientUnits="userSpaceOnUse">
<stop stop-color="#8C1011"/>
<stop offset="0.21" stop-color="#B31516"/>
<stop offset="0.63" stop-color="#D14546"/>
<stop offset="0.87" stop-color="#EDB7B7"/>
</linearGradient>
<radialGradient id="paint1_radial_135_12864" cx="0" cy="0" r="1" gradientUnits="userSpaceOnUse" gradientTransform="translate(150.456 31.3017) scale(70.2894 70.2894)">
<stop offset="0.34" stop-color="#D86464"/>
<stop offset="0.95" stop-color="#8C1011"/>
</radialGradient>
<linearGradient id="paint2_linear_135_12864" x1="155.594" y1="40.8849" x2="136.369" y2="40.8849" gradientUnits="userSpaceOnUse">
<stop offset="0.03" stop-color="white"/>
<stop offset="0.55" stop-color="#F7F2ED"/>
<stop offset="0.87" stop-color="#F2EAE0"/>
</linearGradient>
<radialGradient id="paint3_radial_135_12864" cx="0" cy="0" r="1" gradientUnits="userSpaceOnUse" gradientTransform="translate(127.329 67.0236) rotate(180) scale(6.29186 6.35477)">
<stop stop-color="#FFBDAB"/>
<stop offset="1" stop-color="#F28775"/>
</radialGradient>
<radialGradient id="paint4_radial_135_12864" cx="0" cy="0" r="1" gradientUnits="userSpaceOnUse" gradientTransform="translate(164.308 67.5668) rotate(20.22) scale(8.9922)">
<stop stop-color="#FFBDAB"/>
<stop offset="1" stop-color="#F28775"/>
</radialGradient>
<radialGradient id="paint5_radial_135_12864" cx="0" cy="0" r="1" gradientUnits="userSpaceOnUse" gradientTransform="translate(146.236 36.2991) rotate(180) scale(7.78429 7.86213)">
<stop stop-color="#FFBDAB"/>
<stop offset="1" stop-color="#F28775"/>
</radialGradient>
<linearGradient id="paint6_linear_135_12864" x1="146.168" y1="44.0657" x2="145.47" y2="21.1423" gradientUnits="userSpaceOnUse">
<stop stop-color="#D63544"/>
<stop offset="1" stop-color="#E69679"/>
</linearGradient>
<radialGradient id="paint7_radial_135_12864" cx="0" cy="0" r="1" gradientUnits="userSpaceOnUse" gradientTransform="translate(159.5 18.427) rotate(-173.03) scale(3.62908 3.62909)">
<stop stop-color="#FFBDAB"/>
<stop offset="1" stop-color="#F28775"/>
</radialGradient>
<radialGradient id="paint8_radial_135_12864" cx="0" cy="0" r="1" gradientUnits="userSpaceOnUse" gradientTransform="translate(133.913 17.9498) rotate(-6.96999) scale(3.62909 3.62909)">
<stop stop-color="#FFBDAB"/>
<stop offset="1" stop-color="#F28775"/>
</radialGradient>
<radialGradient id="paint9_radial_135_12864" cx="0" cy="0" r="1" gradientUnits="userSpaceOnUse" gradientTransform="translate(146.884 19.7563) scale(11.2523 14.7405)">
<stop stop-color="#FFBDAB"/>
<stop offset="1" stop-color="#F28775"/>
</radialGradient>
<linearGradient id="paint10_linear_135_12864" x1="158.69" y1="8.68482" x2="136.48" y2="8.68482" gradientUnits="userSpaceOnUse">
<stop stop-color="#34191A"/>
<stop offset="1" stop-color="#4D161F"/>
</linearGradient>
<linearGradient id="paint11_linear_135_12864" x1="152.11" y1="19.7373" x2="150.328" y2="19.7373" gradientUnits="userSpaceOnUse">
<stop stop-color="#34191A"/>
<stop offset="1" stop-color="#4D161F"/>
</linearGradient>
<linearGradient id="paint12_linear_135_12864" x1="142.987" y1="19.7373" x2="141.199" y2="19.7373" gradientUnits="userSpaceOnUse">
<stop stop-color="#34191A"/>
<stop offset="1" stop-color="#4D161F"/>
</linearGradient>
<linearGradient id="paint13_linear_135_12864" x1="154.746" y1="12.8282" x2="147.289" y2="12.8282" gradientUnits="userSpaceOnUse">
<stop stop-color="#34191A"/>
<stop offset="1" stop-color="#4D161F"/>
</linearGradient>
<linearGradient id="paint14_linear_135_12864" x1="142.091" y1="12.8282" x2="137.259" y2="12.8282" gradientUnits="userSpaceOnUse">
<stop stop-color="#34191A"/>
<stop offset="1" stop-color="#4D161F"/>
</linearGradient>
<linearGradient id="paint15_linear_135_12864" x1="34.5938" y1="83.3535" x2="38.7812" y2="83.3535" gradientUnits="userSpaceOnUse">
<stop offset="0.03" stop-color="#CCC2B4"/>
<stop offset="0.62" stop-color="#DAD1C5"/>
<stop offset="0.87" stop-color="#E2D9CF"/>
</linearGradient>
<linearGradient id="paint16_linear_135_12864" x1="37.8555" y1="192.762" x2="42.0429" y2="192.762" gradientUnits="userSpaceOnUse">
<stop offset="0.03" stop-color="#CCC2B4"/>
<stop offset="0.62" stop-color="#DAD1C5"/>
<stop offset="0.87" stop-color="#E2D9CF"/>
</linearGradient>
<linearGradient id="paint17_linear_135_12864" x1="34.7163" y1="176.388" x2="45.1956" y2="176.388" gradientUnits="userSpaceOnUse">
<stop offset="0.03" stop-color="#CCC2B4"/>
<stop offset="0.62" stop-color="#DAD1C5"/>
<stop offset="0.87" stop-color="#E2D9CF"/>
</linearGradient>
<linearGradient id="paint18_linear_135_12864" x1="18.0977" y1="66.0722" x2="55.2905" y2="66.0722" gradientUnits="userSpaceOnUse">
<stop offset="0.03" stop-color="#CCC2B4"/>
<stop offset="0.62" stop-color="#DAD1C5"/>
<stop offset="0.87" stop-color="#E2D9CF"/>
</linearGradient>
<linearGradient id="paint19_linear_135_12864" x1="4" y1="119.569" x2="67.9546" y2="119.569" gradientUnits="userSpaceOnUse">
<stop offset="0.03" stop-color="#CCC2B4"/>
<stop offset="0.62" stop-color="#DAD1C5"/>
<stop offset="0.87" stop-color="#E2D9CF"/>
</linearGradient>
<linearGradient id="paint20_linear_135_12864" x1="11.3477" y1="165.802" x2="89.4107" y2="165.802" gradientUnits="userSpaceOnUse">
<stop offset="0.03" stop-color="#CCC2B4"/>
<stop offset="0.62" stop-color="#DAD1C5"/>
<stop offset="0.87" stop-color="#E2D9CF"/>
</linearGradient>
<radialGradient id="paint21_radial_135_12864" cx="0" cy="0" r="1" gradientUnits="userSpaceOnUse" gradientTransform="translate(128.333 107.637) scale(24.6467)">
<stop stop-color="#FFBDAB"/>
<stop offset="1" stop-color="#F28775"/>
</radialGradient>
<radialGradient id="paint22_radial_135_12864" cx="0" cy="0" r="1" gradientUnits="userSpaceOnUse" gradientTransform="translate(128.333 107.637) scale(24.6467 24.6467)">
<stop stop-color="#FFBDAB"/>
<stop offset="1" stop-color="#F28775"/>
</radialGradient>
<radialGradient id="paint23_radial_135_12864" cx="0" cy="0" r="1" gradientUnits="userSpaceOnUse" gradientTransform="translate(158.564 135.425) rotate(180) scale(16.2987 16.2987)">
<stop stop-color="#FFBDAB"/>
<stop offset="1" stop-color="#F28775"/>
</radialGradient>
<radialGradient id="paint24_radial_135_12864" cx="0" cy="0" r="1" gradientUnits="userSpaceOnUse" gradientTransform="translate(128.34 107.635) scale(24.6467 24.6467)">
<stop stop-color="#FFBDAB"/>
<stop offset="1" stop-color="#F28775"/>
</radialGradient>
<radialGradient id="paint25_radial_135_12864" cx="0" cy="0" r="1" gradientUnits="userSpaceOnUse" gradientTransform="translate(60.5559 78.3487) scale(9.77599 9.77599)">
<stop stop-color="#FFBDAB"/>
<stop offset="1" stop-color="#F28775"/>
</radialGradient>
<linearGradient id="paint26_linear_135_12864" x1="60.8069" y1="83.8036" x2="61.3759" y2="64.9979" gradientUnits="userSpaceOnUse">
<stop stop-color="#D63544"/>
<stop offset="1" stop-color="#E69679"/>
</linearGradient>
<radialGradient id="paint27_radial_135_12864" cx="0" cy="0" r="1" gradientUnits="userSpaceOnUse" gradientTransform="translate(61.4566 59.3736) scale(10.0122 14.3175)">
<stop stop-color="#FFBDAB"/>
<stop offset="1" stop-color="#F28775"/>
</radialGradient>
<radialGradient id="paint28_radial_135_12864" cx="0" cy="0" r="1" gradientUnits="userSpaceOnUse" gradientTransform="translate(69.3304 32.1436) scale(35.2763 35.2763)">
<stop stop-color="#34191A"/>
<stop offset="1" stop-color="#4D161F"/>
</radialGradient>
<linearGradient id="paint29_linear_135_12864" x1="57.4102" y1="58.7595" x2="58.9992" y2="58.7595" gradientUnits="userSpaceOnUse">
<stop stop-color="#34191A"/>
<stop offset="1" stop-color="#4D161F"/>
</linearGradient>
<linearGradient id="paint30_linear_135_12864" x1="65.3438" y1="58.7595" x2="66.9328" y2="58.7595" gradientUnits="userSpaceOnUse">
<stop stop-color="#34191A"/>
<stop offset="1" stop-color="#4D161F"/>
</linearGradient>
<linearGradient id="paint31_linear_135_12864" x1="54.2812" y1="52.6404" x2="60.9113" y2="52.6404" gradientUnits="userSpaceOnUse">
<stop stop-color="#34191A"/>
<stop offset="1" stop-color="#4D161F"/>
</linearGradient>
<linearGradient id="paint32_linear_135_12864" x1="65.5298" y1="52.6404" x2="69.8353" y2="52.6404" gradientUnits="userSpaceOnUse">
<stop stop-color="#34191A"/>
<stop offset="1" stop-color="#4D161F"/>
</linearGradient>
<radialGradient id="paint33_radial_135_12864" cx="0" cy="0" r="1" gradientUnits="userSpaceOnUse" gradientTransform="translate(49.5254 57.1225) scale(3.69351 3.69351)">
<stop stop-color="#FFBDAB"/>
<stop offset="1" stop-color="#F28775"/>
</radialGradient>
<linearGradient id="paint34_linear_135_12864" x1="48.3041" y1="46.7173" x2="76.4832" y2="46.7173" gradientUnits="userSpaceOnUse">
<stop stop-color="#34191A"/>
<stop offset="1" stop-color="#4D161F"/>
</linearGradient>
<linearGradient id="paint35_linear_135_12864" x1="51.0867" y1="106.119" x2="39.3959" y2="127.481" gradientUnits="userSpaceOnUse">
<stop stop-color="#FFBDAB"/>
<stop offset="1" stop-color="#F28775"/>
</linearGradient>
<linearGradient id="paint36_linear_135_12864" x1="135.656" y1="107.681" x2="192.873" y2="107.681" gradientUnits="userSpaceOnUse">
<stop stop-color="#6159C9"/>
<stop offset="1" stop-color="#3E36A3"/>
</linearGradient>
<linearGradient id="paint37_linear_135_12864" x1="212.333" y1="111.079" x2="214.099" y2="102.93" gradientUnits="userSpaceOnUse">
<stop offset="0.03" stop-color="white"/>
<stop offset="0.55" stop-color="#F7F2ED"/>
<stop offset="0.87" stop-color="#F2EAE0"/>
</linearGradient>
<linearGradient id="paint38_linear_135_12864" x1="120.543" y1="126.191" x2="180.321" y2="126.191" gradientUnits="userSpaceOnUse">
<stop stop-color="#6159C9"/>
<stop offset="1" stop-color="#3E36A3"/>
</linearGradient>
<linearGradient id="paint39_linear_135_12864" x1="202.191" y1="182.163" x2="223.467" y2="182.163" gradientUnits="userSpaceOnUse">
<stop offset="0.03" stop-color="#CCC2B4"/>
<stop offset="0.62" stop-color="#DAD1C5"/>
<stop offset="0.87" stop-color="#E2D9CF"/>
</linearGradient>
<linearGradient id="paint40_linear_135_12864" x1="116.055" y1="182.163" x2="94.7852" y2="182.163" gradientUnits="userSpaceOnUse">
<stop offset="0.03" stop-color="#CCC2B4"/>
<stop offset="0.62" stop-color="#DAD1C5"/>
<stop offset="0.87" stop-color="#E2D9CF"/>
</linearGradient>
<linearGradient id="paint41_linear_135_12864" x1="75.6367" y1="131.163" x2="242.612" y2="131.163" gradientUnits="userSpaceOnUse">
<stop offset="0.03" stop-color="#CCC2B4"/>
<stop offset="0.62" stop-color="#DAD1C5"/>
<stop offset="0.87" stop-color="#E2D9CF"/>
</linearGradient>
<linearGradient id="paint42_linear_135_12864" x1="268.982" y1="60.0704" x2="212.538" y2="34.0226" gradientUnits="userSpaceOnUse">
<stop stop-color="#34191A"/>
<stop offset="1" stop-color="#4D161F"/>
</linearGradient>
<linearGradient id="paint43_linear_135_12864" x1="260.45" y1="56.5539" x2="263.596" y2="42.0483" gradientUnits="userSpaceOnUse">
<stop stop-color="#34191A"/>
<stop offset="1" stop-color="#4D161F"/>
</linearGradient>
<linearGradient id="paint44_linear_135_12864" x1="247.423" y1="87.115" x2="222.793" y2="74.186" gradientUnits="userSpaceOnUse">
<stop offset="0.03" stop-color="#8C1011"/>
<stop offset="0.44" stop-color="#C51718"/>
<stop offset="0.87" stop-color="#D86464"/>
</linearGradient>
<radialGradient id="paint45_radial_135_12864" cx="0" cy="0" r="1" gradientUnits="userSpaceOnUse" gradientTransform="translate(185.635 60.1126) scale(29.3333 29.3334)">
<stop stop-color="#FFBDAB"/>
<stop offset="1" stop-color="#F28775"/>
</radialGradient>
<linearGradient id="paint46_linear_135_12864" x1="202.393" y1="70.3457" x2="196.407" y2="64.7303" gradientUnits="userSpaceOnUse">
<stop stop-color="#D63544"/>
<stop offset="1" stop-color="#E69679"/>
</linearGradient>
<radialGradient id="paint47_radial_135_12864" cx="0" cy="0" r="1" gradientUnits="userSpaceOnUse" gradientTransform="translate(175.752 61.7567) scale(16.4651 16.4651)">
<stop stop-color="#FFBDAB"/>
<stop offset="1" stop-color="#F28775"/>
</radialGradient>
<radialGradient id="paint48_radial_135_12864" cx="0" cy="0" r="1" gradientUnits="userSpaceOnUse" gradientTransform="translate(185.241 61.8201) scale(31.2016 31.2016)">
<stop stop-color="#FFBDAB"/>
<stop offset="1" stop-color="#F28775"/>
</radialGradient>
<linearGradient id="paint49_linear_135_12864" x1="278.299" y1="90.0891" x2="244.2" y2="70.7574" gradientUnits="userSpaceOnUse">
<stop offset="0.03" stop-color="#8C1011"/>
<stop offset="0.44" stop-color="#C51718"/>
<stop offset="0.87" stop-color="#D86464"/>
</linearGradient>
<radialGradient id="paint50_radial_135_12864" cx="0" cy="0" r="1" gradientUnits="userSpaceOnUse" gradientTransform="translate(247.569 38.6722) rotate(180) scale(3.83846 3.83846)">
<stop stop-color="#FFBDAB"/>
<stop offset="1" stop-color="#F28775"/>
</radialGradient>
<linearGradient id="paint51_linear_135_12864" x1="228.061" y1="47.2795" x2="217.597" y2="47.2795" gradientUnits="userSpaceOnUse">
<stop stop-color="#F1C86C"/>
<stop offset="1" stop-color="#E8932E"/>
</linearGradient>
<linearGradient id="paint52_linear_135_12864" x1="251.565" y1="47.2795" x2="241.101" y2="47.2795" gradientUnits="userSpaceOnUse">
<stop stop-color="#F1C86C"/>
<stop offset="1" stop-color="#E8932E"/>
</linearGradient>
<radialGradient id="paint53_radial_135_12864" cx="0" cy="0" r="1" gradientUnits="userSpaceOnUse" gradientTransform="translate(235.196 37.7366) rotate(180) scale(10.4041 14.8779)">
<stop stop-color="#FFBDAB"/>
<stop offset="1" stop-color="#F28775"/>
</radialGradient>
<linearGradient id="paint54_linear_135_12864" x1="228.084" y1="69.6816" x2="230.854" y2="28.7846" gradientUnits="userSpaceOnUse">
<stop stop-color="#34191A"/>
<stop offset="1" stop-color="#4D161F"/>
</linearGradient>
<linearGradient id="paint55_linear_135_12864" x1="237.306" y1="71.2483" x2="240.13" y2="29.5728" gradientUnits="userSpaceOnUse">
<stop stop-color="#34191A"/>
<stop offset="1" stop-color="#4D161F"/>
</linearGradient>
<linearGradient id="paint56_linear_135_12864" x1="238.331" y1="40.6798" x2="236.677" y2="40.6798" gradientUnits="userSpaceOnUse">
<stop stop-color="#34191A"/>
<stop offset="1" stop-color="#4D161F"/>
</linearGradient>
<linearGradient id="paint57_linear_135_12864" x1="231.604" y1="40.6798" x2="229.951" y2="40.6798" gradientUnits="userSpaceOnUse">
<stop stop-color="#34191A"/>
<stop offset="1" stop-color="#4D161F"/>
</linearGradient>
<linearGradient id="paint58_linear_135_12864" x1="240.699" y1="28.2789" x2="240.452" y2="44.0998" gradientUnits="userSpaceOnUse">
<stop stop-color="#34191A"/>
<stop offset="1" stop-color="#4D161F"/>
</linearGradient>
<linearGradient id="paint59_linear_135_12864" x1="229.556" y1="28.1018" x2="229.309" y2="43.9227" gradientUnits="userSpaceOnUse">
<stop stop-color="#34191A"/>
<stop offset="1" stop-color="#4D161F"/>
</linearGradient>
<linearGradient id="paint60_linear_135_12864" x1="232.63" y1="48.3577" x2="239.899" y2="48.3577" gradientUnits="userSpaceOnUse">
<stop stop-color="#34191A"/>
<stop offset="1" stop-color="#4D161F"/>
</linearGradient>
<radialGradient id="paint61_radial_135_12864" cx="0" cy="0" r="1" gradientUnits="userSpaceOnUse" gradientTransform="translate(260.347 47.1853) scale(27.9214 27.9214)">
<stop stop-color="#FFBDAB"/>
<stop offset="1" stop-color="#F28775"/>
</radialGradient>
<linearGradient id="paint62_linear_135_12864" x1="248.28" y1="56.3176" x2="234.479" y2="43.5303" gradientUnits="userSpaceOnUse">
<stop stop-color="#D63544"/>
<stop offset="1" stop-color="#E69679"/>
</linearGradient>
<radialGradient id="paint63_radial_135_12864" cx="0" cy="0" r="1" gradientUnits="userSpaceOnUse" gradientTransform="translate(243.507 106.265) scale(23.9219 23.9219)">
<stop stop-color="#FFBDAB"/>
<stop offset="1" stop-color="#F28775"/>
</radialGradient>
<linearGradient id="paint64_linear_135_12864" x1="273.694" y1="86.0697" x2="250.25" y2="75.2522" gradientUnits="userSpaceOnUse">
<stop offset="0.03" stop-color="#8C1011"/>
<stop offset="0.44" stop-color="#C51718"/>
<stop offset="0.87" stop-color="#D86464"/>
</linearGradient>
</defs>
</svg>
